<svg xmlns="http://www.w3.org/2000/svg" width="662" height="101" viewBox="0 0 662 101" fill="none">
<path d="M114.001 98.9908V87.2398L160.73 21.6727H113.91V5.34952H185.604V17.1005L138.829 82.6677H185.695V98.9908H114.001ZM245.558 69.0877V28.7598H265.037V98.9908H246.336V86.2339H245.604C244.019 90.349 241.382 93.6564 237.694 96.1559C234.036 98.6554 229.571 99.9053 224.297 99.9053C219.603 99.9053 215.472 98.8386 211.906 96.7047C208.34 94.5709 205.551 91.538 203.539 87.6058C201.557 83.6736 200.551 78.964 200.521 73.4773V28.7598H219.999V70.0022C220.03 74.1478 221.142 77.4247 223.337 79.8328C225.532 82.2408 228.473 83.445 232.162 83.445C234.509 83.445 236.703 82.9113 238.746 81.8446C240.788 80.7473 242.434 79.1317 243.684 76.9978C244.964 74.864 245.589 72.2274 245.558 69.0877ZM218.948 19.158C216.326 19.158 214.07 18.2436 212.18 16.4146C210.291 14.555 209.345 12.3603 209.345 9.83026C209.345 7.23935 210.291 5.04469 212.18 3.24628C214.07 1.44787 216.326 0.548505 218.948 0.548505C221.6 0.548505 223.84 1.44787 225.669 3.24628C227.528 5.04469 228.458 7.23935 228.458 9.83026C228.458 12.3603 227.528 14.555 225.669 16.4146C223.84 18.2436 221.6 19.158 218.948 19.158ZM246.93 19.158C244.309 19.158 242.053 18.2436 240.163 16.4146C238.273 14.555 237.328 12.3603 237.328 9.83026C237.328 7.23935 238.273 5.04469 240.163 3.24628C242.053 1.44787 244.309 0.548505 246.93 0.548505C249.582 0.548505 251.823 1.44787 253.651 3.24628C255.511 5.04469 256.441 7.23935 256.441 9.83026C256.441 12.3603 255.511 14.555 253.651 16.4146C251.823 18.2436 249.582 19.158 246.93 19.158ZM280.617 98.9908V28.7598H299.501V41.0135H300.232C301.513 36.6548 303.66 33.3625 306.68 31.1376C309.696 28.8818 313.172 27.7538 317.102 27.7538C318.081 27.7538 319.13 27.815 320.26 27.9367C321.387 28.0587 322.378 28.2264 323.231 28.4398V45.7231C322.317 45.4489 321.052 45.2049 319.436 44.9915C317.82 44.7781 316.343 44.6715 315 44.6715C312.136 44.6715 309.573 45.2963 307.32 46.5462C305.093 47.7656 303.325 49.4725 302.015 51.6672C300.734 53.8619 300.094 56.3919 300.094 59.2571V98.9908H280.617ZM333.3 98.9908V28.7598H352.781V98.9908H333.3ZM343.085 19.7065C340.192 19.7065 337.707 18.7463 335.634 16.8259C333.59 14.8753 332.569 12.5432 332.569 9.83026C332.569 7.14793 333.59 4.8464 335.634 2.926C337.707 0.975332 340.192 0 343.085 0C345.983 0 348.451 0.975332 350.492 2.926C352.565 4.8464 353.602 7.14793 353.602 9.83026C353.602 12.5432 352.565 14.8753 350.492 16.8259C348.451 18.7463 345.983 19.7065 343.085 19.7065ZM400.115 100.362C392.921 100.362 386.734 98.8386 381.552 95.7902C376.398 92.7113 372.436 88.444 369.664 82.9876C366.918 77.5312 365.547 71.2521 365.547 64.1495C365.547 56.9559 366.934 50.6462 369.709 45.2204C372.513 39.764 376.491 35.5118 381.642 32.4635C386.795 29.3846 392.921 27.8453 400.022 27.8453C406.151 27.8453 411.517 28.958 416.116 31.1833C420.719 33.4082 424.363 36.5328 427.045 40.5565C429.729 44.5801 431.207 49.3048 431.48 54.7307H413.1C412.582 51.2252 411.211 48.4055 408.986 46.272C406.791 44.1076 403.91 43.0254 400.344 43.0254C397.324 43.0254 394.688 43.8484 392.432 45.4946C390.207 47.1102 388.469 49.4725 387.22 52.5817C385.971 55.6909 385.347 59.4554 385.347 63.8753C385.347 68.3563 385.955 72.1666 387.175 75.306C388.424 78.4457 390.178 80.8387 392.432 82.4848C394.688 84.1307 397.324 84.9537 400.344 84.9537C402.568 84.9537 404.564 84.4967 406.334 83.5822C408.13 82.6677 409.611 81.3415 410.77 79.6042C411.958 77.8361 412.733 75.7177 413.1 73.2485H431.48C431.174 78.6134 429.713 83.3382 427.093 87.4227C424.502 91.4769 420.919 94.6472 416.345 96.9333C411.774 99.2193 406.363 100.362 400.115 100.362ZM463.431 58.3886V98.9908H443.95V5.34952H462.881V41.1507H463.705C465.289 37.0053 467.851 33.7587 471.385 31.4118C474.923 29.034 479.358 27.8453 484.692 27.8453C489.569 27.8453 493.821 28.9123 497.449 31.0458C501.105 33.1494 503.941 36.1823 505.953 40.1451C507.994 44.077 509.002 48.7866 508.969 54.2736V98.9908H489.492V57.7484C489.524 53.4199 488.426 50.0516 486.199 47.6436C484.007 45.2355 480.926 44.0313 476.964 44.0313C474.311 44.0313 471.965 44.5952 469.924 45.7231C467.912 46.8511 466.325 48.4969 465.166 50.6613C464.04 52.7951 463.46 55.3709 463.431 58.3886Z" fill="black"/>
<path d="M610.829 71.2774C614.914 77.947 620.228 82.8494 629.628 82.8494C637.524 82.8494 642.568 78.903 642.568 73.4502C642.568 66.9158 637.385 64.6014 628.694 60.7998L623.93 58.7558C610.179 52.8974 601.044 45.5582 601.044 30.043C601.044 15.751 611.933 4.87109 628.952 4.87109C641.068 4.87109 649.778 9.08788 656.055 20.1288L641.216 29.6568C637.949 23.7983 634.424 21.4904 628.952 21.4904C623.37 21.4904 619.833 25.0312 619.833 29.6568C619.833 35.3736 623.373 37.688 631.549 41.2288L636.313 43.2696C652.505 50.2128 661.646 57.2912 661.646 73.2055C661.646 90.3624 648.169 99.7616 630.069 99.7616C612.371 99.7616 600.937 91.3281 595.343 80.2743L610.829 71.2774ZM543.512 72.9287C546.506 78.2399 549.229 82.7303 555.776 82.7303C562.037 82.7303 565.986 80.2807 565.986 70.7559V5.95909H585.042V71.0135C585.042 90.7454 573.474 99.7262 556.587 99.7262C541.33 99.7262 532.494 91.8302 528 82.3199L543.512 72.9287Z" fill="black"/>
<path d="M0 4L95 99H0V4Z" fill="#258BCC"/>
<path d="M95 99L0 4H95V99Z" fill="white"/>
</svg> 