<svg width="200" height="200" viewBox="0 0 109 113" fill="none" xmlns="http://www.w3.org/2000/svg">
  <path d="M63.7076 110.284C60.8481 113.885 55.0502 111.912 54.9813 107.314L53.9738 40.0627H99.1935C108.244 40.0627 113.303 50.5228 107.676 57.3984L63.7076 110.284Z" fill="url(#paint0_linear)"/>
  <path d="M63.7076 110.284C60.8481 113.885 55.0502 111.912 54.9813 107.314L53.9738 40.0627H99.1935C108.244 40.0627 113.303 50.5228 107.676 57.3984L63.7076 110.284Z" fill="url(#paint1_linear)" fill-opacity="0.2"/>
  <path d="M45.317 2.07103C48.1765 -1.53037 53.9745 0.442937 54.0434 5.041L54.4849 72.2922H9.83113C0.780607 72.2922 -4.27865 61.8321 1.34862 54.9565L45.317 2.07103Z" fill="#3ECF8E"/>
  <defs>
    <linearGradient id="paint0_linear" x1="53.9738" y1="54.974" x2="94.1635" y2="71.8295" gradientUnits="userSpaceOnUse">
      <stop stop-color="#249361"/>
      <stop offset="1" stop-color="#3ECF8E"/>
    </linearGradient>
    <linearGradient id="paint1_linear" x1="36.1558" y1="30.578" x2="54.4844" y2="65.0806" gradientUnits="userSpaceOnUse">
      <stop/>
      <stop offset="1" stop-opacity="0"/>
    </linearGradient>
  </defs>
</svg>
